<mxfile host="65bd71144e">
    <diagram id="4B2dzDQTKEOs6iFmxYXp" name="Page-1">
        <mxGraphModel dx="1520" dy="675" grid="0" gridSize="10" guides="1" tooltips="1" connect="1" arrows="1" fold="1" page="1" pageScale="1" pageWidth="1100" pageHeight="850" math="0" shadow="0">
            <root>
                <mxCell id="0"/>
                <mxCell id="1" parent="0"/>
                <mxCell id="3" value="Super admin" style="shape=umlActor;verticalLabelPosition=bottom;verticalAlign=top;html=1;outlineConnect=0;" vertex="1" parent="1">
                    <mxGeometry x="87" y="332" width="72" height="103" as="geometry"/>
                </mxCell>
                <mxCell id="4" value="creer Tenant" style="ellipse;whiteSpace=wrap;html=1;" vertex="1" parent="1">
                    <mxGeometry x="146" y="61" width="120" height="33" as="geometry"/>
                </mxCell>
                <mxCell id="5" value="  Créer administrateur" style="ellipse;whiteSpace=wrap;html=1;" vertex="1" parent="1">
                    <mxGeometry x="459" y="37" width="120" height="40" as="geometry"/>
                </mxCell>
                <mxCell id="6" value="configurer tenant" style="ellipse;whiteSpace=wrap;html=1;" vertex="1" parent="1">
                    <mxGeometry x="216" y="123" width="120" height="42" as="geometry"/>
                </mxCell>
                <mxCell id="7" value=" Superviser les actions" style="ellipse;whiteSpace=wrap;html=1;" vertex="1" parent="1">
                    <mxGeometry x="382" y="187" width="120" height="40" as="geometry"/>
                </mxCell>
                <mxCell id="9" value="" style="endArrow=classic;html=1;entryX=0.424;entryY=1;entryDx=0;entryDy=0;entryPerimeter=0;" edge="1" parent="1" target="4">
                    <mxGeometry width="50" height="50" relative="1" as="geometry">
                        <mxPoint x="177" y="392" as="sourcePoint"/>
                        <mxPoint x="378" y="74" as="targetPoint"/>
                    </mxGeometry>
                </mxCell>
                <mxCell id="10" value="" style="endArrow=classic;html=1;entryX=0;entryY=0.5;entryDx=0;entryDy=0;" edge="1" parent="1" target="6">
                    <mxGeometry width="50" height="50" relative="1" as="geometry">
                        <mxPoint x="175" y="387" as="sourcePoint"/>
                        <mxPoint x="405" y="197" as="targetPoint"/>
                    </mxGeometry>
                </mxCell>
                <mxCell id="15" value="" style="endArrow=classic;html=1;entryX=0;entryY=1;entryDx=0;entryDy=0;" edge="1" parent="1" target="5">
                    <mxGeometry width="50" height="50" relative="1" as="geometry">
                        <mxPoint x="176" y="388" as="sourcePoint"/>
                        <mxPoint x="433" y="151" as="targetPoint"/>
                    </mxGeometry>
                </mxCell>
                <mxCell id="16" value="" style="endArrow=classic;html=1;entryX=0.058;entryY=0.779;entryDx=0;entryDy=0;entryPerimeter=0;" edge="1" parent="1" target="7">
                    <mxGeometry width="50" height="50" relative="1" as="geometry">
                        <mxPoint x="174" y="385" as="sourcePoint"/>
                        <mxPoint x="662" y="265" as="targetPoint"/>
                    </mxGeometry>
                </mxCell>
                <mxCell id="19" value="&amp;lt;&amp;lt;include&amp;gt;&amp;gt;" style="endArrow=open;endSize=12;dashed=1;html=1;entryX=0.5;entryY=1;entryDx=0;entryDy=0;exitX=1;exitY=0;exitDx=0;exitDy=0;" edge="1" parent="1" source="7" target="5">
                    <mxGeometry width="160" relative="1" as="geometry">
                        <mxPoint x="669" y="220" as="sourcePoint"/>
                        <mxPoint x="717" y="290" as="targetPoint"/>
                    </mxGeometry>
                </mxCell>
                <mxCell id="20" value="&amp;lt;&amp;lt;include&amp;gt;&amp;gt;" style="endArrow=open;endSize=12;dashed=1;html=1;entryX=1;entryY=0.5;entryDx=0;entryDy=0;exitX=0.005;exitY=0.725;exitDx=0;exitDy=0;exitPerimeter=0;" edge="1" parent="1" source="5" target="6">
                    <mxGeometry width="160" relative="1" as="geometry">
                        <mxPoint x="493" y="112" as="sourcePoint"/>
                        <mxPoint x="599" y="188" as="targetPoint"/>
                    </mxGeometry>
                </mxCell>
                <mxCell id="21" value="  Appliquer correctifs&amp;nbsp;" style="ellipse;whiteSpace=wrap;html=1;" vertex="1" parent="1">
                    <mxGeometry x="481" y="265" width="120" height="40" as="geometry"/>
                </mxCell>
                <mxCell id="22" value="  Générer rapports&amp;nbsp;" style="ellipse;whiteSpace=wrap;html=1;" vertex="1" parent="1">
                    <mxGeometry x="592.5" y="156" width="120" height="40" as="geometry"/>
                </mxCell>
                <mxCell id="23" value=" Gérer incidents" style="ellipse;whiteSpace=wrap;html=1;" vertex="1" parent="1">
                    <mxGeometry x="447" y="320" width="120" height="40" as="geometry"/>
                </mxCell>
                <mxCell id="25" value="" style="endArrow=classic;html=1;entryX=-0.019;entryY=0.737;entryDx=0;entryDy=0;entryPerimeter=0;" edge="1" parent="1" target="22">
                    <mxGeometry width="50" height="50" relative="1" as="geometry">
                        <mxPoint x="176" y="383" as="sourcePoint"/>
                        <mxPoint x="662" y="244" as="targetPoint"/>
                    </mxGeometry>
                </mxCell>
                <mxCell id="26" value="" style="endArrow=classic;html=1;entryX=0.049;entryY=0.76;entryDx=0;entryDy=0;entryPerimeter=0;" edge="1" parent="1" target="21">
                    <mxGeometry width="50" height="50" relative="1" as="geometry">
                        <mxPoint x="171" y="388" as="sourcePoint"/>
                        <mxPoint x="662" y="244" as="targetPoint"/>
                    </mxGeometry>
                </mxCell>
                <mxCell id="27" value="" style="endArrow=classic;html=1;entryX=0;entryY=0.5;entryDx=0;entryDy=0;" edge="1" parent="1" target="23">
                    <mxGeometry width="50" height="50" relative="1" as="geometry">
                        <mxPoint x="178" y="389" as="sourcePoint"/>
                        <mxPoint x="662" y="244" as="targetPoint"/>
                    </mxGeometry>
                </mxCell>
                <mxCell id="29" value="&amp;lt;&amp;lt;include&amp;gt;&amp;gt;" style="endArrow=open;endSize=12;dashed=1;html=1;entryX=0;entryY=1;entryDx=0;entryDy=0;exitX=0.663;exitY=0.05;exitDx=0;exitDy=0;exitPerimeter=0;" edge="1" parent="1" source="21" target="22">
                    <mxGeometry width="160" relative="1" as="geometry">
                        <mxPoint x="495.42640687119297" y="242.85786437626894" as="sourcePoint"/>
                        <mxPoint x="507" y="189" as="targetPoint"/>
                    </mxGeometry>
                </mxCell>
                <mxCell id="30" value=" Configurer micro-service" style="ellipse;whiteSpace=wrap;html=1;" vertex="1" parent="1">
                    <mxGeometry x="574" y="360" width="157" height="40" as="geometry"/>
                </mxCell>
                <mxCell id="32" value="" style="endArrow=classic;html=1;entryX=0;entryY=0.5;entryDx=0;entryDy=0;" edge="1" parent="1" target="30">
                    <mxGeometry width="50" height="50" relative="1" as="geometry">
                        <mxPoint x="174" y="392" as="sourcePoint"/>
                        <mxPoint x="662" y="237" as="targetPoint"/>
                    </mxGeometry>
                </mxCell>
                <mxCell id="33" value=" Générer un audit complet" style="ellipse;whiteSpace=wrap;html=1;" vertex="1" parent="1">
                    <mxGeometry x="474" y="466" width="157" height="40" as="geometry"/>
                </mxCell>
                <mxCell id="34" value="analyser logs d’activité :" style="ellipse;whiteSpace=wrap;html=1;" vertex="1" parent="1">
                    <mxGeometry x="529" y="416" width="157" height="40" as="geometry"/>
                </mxCell>
                <mxCell id="38" value="&lt;strong&gt;&lt;span style=&quot;line-height: 107%; font-family: Calibri, sans-serif;&quot;&gt;&lt;font style=&quot;font-size: 12px;&quot;&gt;Créer un rôle personnalisé&lt;/font&gt;&lt;/span&gt;&lt;/strong&gt;&lt;span style=&quot;font-size:11.0pt;line-height:107%;font-family:&amp;quot;Calibri&amp;quot;,sans-serif;&lt;br/&gt;mso-ascii-theme-font:minor-latin;mso-fareast-font-family:Calibri;mso-fareast-theme-font:&lt;br/&gt;minor-latin;mso-hansi-theme-font:minor-latin;mso-bidi-theme-font:minor-latin;&lt;br/&gt;mso-ansi-language:FR;mso-fareast-language:EN-US;mso-bidi-language:AR-SA&quot;&gt;&lt;/span&gt;" style="ellipse;whiteSpace=wrap;html=1;" vertex="1" parent="1">
                    <mxGeometry x="438" y="531" width="157" height="40" as="geometry"/>
                </mxCell>
                <mxCell id="39" value="" style="endArrow=classic;html=1;fontSize=12;entryX=0;entryY=0.5;entryDx=0;entryDy=0;" edge="1" parent="1" target="34">
                    <mxGeometry width="50" height="50" relative="1" as="geometry">
                        <mxPoint x="171" y="394" as="sourcePoint"/>
                        <mxPoint x="662" y="275" as="targetPoint"/>
                    </mxGeometry>
                </mxCell>
                <mxCell id="40" value="" style="endArrow=classic;html=1;fontSize=12;entryX=0;entryY=0.5;entryDx=0;entryDy=0;" edge="1" parent="1" target="33">
                    <mxGeometry width="50" height="50" relative="1" as="geometry">
                        <mxPoint x="173" y="392" as="sourcePoint"/>
                        <mxPoint x="662" y="275" as="targetPoint"/>
                    </mxGeometry>
                </mxCell>
                <mxCell id="41" value="" style="endArrow=classic;html=1;fontSize=12;entryX=0;entryY=0.287;entryDx=0;entryDy=0;entryPerimeter=0;" edge="1" parent="1" target="38">
                    <mxGeometry width="50" height="50" relative="1" as="geometry">
                        <mxPoint x="171" y="391" as="sourcePoint"/>
                        <mxPoint x="662" y="275" as="targetPoint"/>
                    </mxGeometry>
                </mxCell>
                <mxCell id="42" value="Créer utilisateur interne" style="ellipse;whiteSpace=wrap;html=1;fontSize=12;" vertex="1" parent="1">
                    <mxGeometry x="82" y="721" width="157" height="48" as="geometry"/>
                </mxCell>
                <mxCell id="43" value="Tenant Admin" style="shape=umlActor;verticalLabelPosition=bottom;verticalAlign=top;html=1;outlineConnect=0;" vertex="1" parent="1">
                    <mxGeometry x="78" y="889" width="72" height="103" as="geometry"/>
                </mxCell>
                <mxCell id="44" value="attribuer rôles/permissions" style="ellipse;whiteSpace=wrap;html=1;fontSize=12;" vertex="1" parent="1">
                    <mxGeometry x="247" y="676" width="180" height="48" as="geometry"/>
                </mxCell>
                <mxCell id="45" value="Suivi actions utilisateurs" style="ellipse;whiteSpace=wrap;html=1;fontSize=12;" vertex="1" parent="1">
                    <mxGeometry x="375" y="592" width="162" height="53" as="geometry"/>
                </mxCell>
                <mxCell id="46" value="modifiers paramètres&amp;nbsp;" style="ellipse;whiteSpace=wrap;html=1;fontSize=12;" vertex="1" parent="1">
                    <mxGeometry x="609" y="741" width="151" height="44" as="geometry"/>
                </mxCell>
                <mxCell id="47" value="Configurer un module" style="ellipse;whiteSpace=wrap;html=1;fontSize=12;" vertex="1" parent="1">
                    <mxGeometry x="437" y="715" width="164" height="50" as="geometry"/>
                </mxCell>
                <mxCell id="48" value="Gerer produit" style="ellipse;whiteSpace=wrap;html=1;fontSize=12;" vertex="1" parent="1">
                    <mxGeometry x="671" y="812" width="101.5" height="35" as="geometry"/>
                </mxCell>
                <mxCell id="49" value="Superviser les commandes" style="ellipse;whiteSpace=wrap;html=1;fontSize=12;" vertex="1" parent="1">
                    <mxGeometry x="628" y="873" width="171.5" height="51" as="geometry"/>
                </mxCell>
                <mxCell id="50" value="Gérer les profils clients" style="ellipse;whiteSpace=wrap;html=1;fontSize=12;" vertex="1" parent="1">
                    <mxGeometry x="628" y="949" width="162" height="40" as="geometry"/>
                </mxCell>
                <mxCell id="51" value="Analyser rapports d’activité&amp;nbsp;" style="ellipse;whiteSpace=wrap;html=1;fontSize=12;" vertex="1" parent="1">
                    <mxGeometry x="532" y="1015" width="173" height="50" as="geometry"/>
                </mxCell>
                <mxCell id="52" value="Visualiser dashbord" style="ellipse;whiteSpace=wrap;html=1;fontSize=12;" vertex="1" parent="1">
                    <mxGeometry x="479" y="1080" width="142" height="43" as="geometry"/>
                </mxCell>
                <mxCell id="53" value="Configurer alertes personnalisées" style="ellipse;whiteSpace=wrap;html=1;fontSize=12;" vertex="1" parent="1">
                    <mxGeometry x="344.75" y="1138" width="203.25" height="52" as="geometry"/>
                </mxCell>
                <mxCell id="54" value="Analyser rapports performances commerciales " style="ellipse;whiteSpace=wrap;html=1;fontSize=12;" vertex="1" parent="1">
                    <mxGeometry x="193" y="1206" width="295" height="58" as="geometry"/>
                </mxCell>
            </root>
        </mxGraphModel>
    </diagram>
</mxfile>